<mxfile host="app.diagrams.net" modified="2024-06-29T06:47:23.572Z" agent="Mozilla/5.0 (X11; Linux x86_64) AppleWebKit/537.36 (KHTML, like Gecko) Chrome/126.0.0.0 Safari/537.36" etag="FNpkzUX_WFy3KDkCsN64" version="24.6.4" type="device">
  <diagram name="Page-1" id="LvTwPrsGiF_9vKIMIz8X">
    <mxGraphModel dx="1434" dy="746" grid="1" gridSize="10" guides="1" tooltips="1" connect="1" arrows="1" fold="1" page="1" pageScale="1" pageWidth="850" pageHeight="1100" math="0" shadow="0">
      <root>
        <mxCell id="0" />
        <mxCell id="1" parent="0" />
        <mxCell id="mCq5QhD6Jpc3-_iY2Im2-2" value="" style="rounded=0;whiteSpace=wrap;html=1;" parent="1" vertex="1">
          <mxGeometry x="50" y="110" width="750" height="480" as="geometry" />
        </mxCell>
        <mxCell id="mCq5QhD6Jpc3-_iY2Im2-3" value="&lt;font style=&quot;font-size: 20px;&quot;&gt;&lt;b style=&quot;&quot;&gt;&lt;u&gt;TRAINING&lt;/u&gt;&lt;/b&gt;&lt;/font&gt;&lt;div style=&quot;font-size: 20px;&quot;&gt;&lt;b style=&quot;&quot;&gt;&lt;font style=&quot;font-size: 20px;&quot;&gt;&lt;u&gt;SET&lt;/u&gt;&lt;/font&gt;&lt;/b&gt;&lt;/div&gt;" style="shape=cylinder3;whiteSpace=wrap;html=1;boundedLbl=1;backgroundOutline=1;size=15;" parent="1" vertex="1">
          <mxGeometry x="80" y="130" width="100" height="120" as="geometry" />
        </mxCell>
        <mxCell id="mCq5QhD6Jpc3-_iY2Im2-4" value="&lt;b style=&quot;font-size: 20px;&quot;&gt;&lt;font style=&quot;font-size: 20px;&quot;&gt;Training Data&lt;/font&gt;&lt;/b&gt;&lt;div style=&quot;font-size: 20px;&quot;&gt;&lt;b style=&quot;&quot;&gt;&lt;font style=&quot;font-size: 20px;&quot;&gt;1&lt;/font&gt;&lt;/b&gt;&lt;/div&gt;" style="shape=step;perimeter=stepPerimeter;whiteSpace=wrap;html=1;fixedSize=1;fontStyle=4" parent="1" vertex="1">
          <mxGeometry x="260" y="150" width="120" height="80" as="geometry" />
        </mxCell>
        <mxCell id="mCq5QhD6Jpc3-_iY2Im2-5" value="&lt;u style=&quot;font-size: 20px;&quot;&gt;&lt;b style=&quot;&quot;&gt;&lt;font style=&quot;font-size: 20px;&quot;&gt;Training Data&lt;/font&gt;&lt;/b&gt;&lt;/u&gt;&lt;div style=&quot;font-size: 20px;&quot;&gt;&lt;u style=&quot;&quot;&gt;&lt;b style=&quot;&quot;&gt;&lt;font style=&quot;font-size: 20px;&quot;&gt;2&lt;/font&gt;&lt;/b&gt;&lt;/u&gt;&lt;/div&gt;" style="shape=step;perimeter=stepPerimeter;whiteSpace=wrap;html=1;fixedSize=1;" parent="1" vertex="1">
          <mxGeometry x="425" y="150" width="120" height="80" as="geometry" />
        </mxCell>
        <mxCell id="mCq5QhD6Jpc3-_iY2Im2-7" value="&lt;u style=&quot;font-size: 20px;&quot;&gt;&lt;b style=&quot;&quot;&gt;&lt;font style=&quot;font-size: 20px;&quot;&gt;Training Data&lt;/font&gt;&lt;/b&gt;&lt;/u&gt;&lt;div style=&quot;font-size: 20px;&quot;&gt;&lt;u style=&quot;&quot;&gt;&lt;b style=&quot;&quot;&gt;&lt;font style=&quot;font-size: 20px;&quot;&gt;n&lt;/font&gt;&lt;/b&gt;&lt;/u&gt;&lt;/div&gt;" style="shape=step;perimeter=stepPerimeter;whiteSpace=wrap;html=1;fixedSize=1;" parent="1" vertex="1">
          <mxGeometry x="610" y="150" width="120" height="80" as="geometry" />
        </mxCell>
        <mxCell id="mCq5QhD6Jpc3-_iY2Im2-8" value="&lt;u style=&quot;font-size: 20px;&quot;&gt;&lt;b style=&quot;&quot;&gt;&lt;font style=&quot;font-size: 20px;&quot;&gt;Decision Tree&lt;/font&gt;&lt;/b&gt;&lt;/u&gt;&lt;div style=&quot;font-size: 20px;&quot;&gt;&lt;u style=&quot;&quot;&gt;&lt;b style=&quot;&quot;&gt;&lt;font style=&quot;font-size: 20px;&quot;&gt;1&lt;/font&gt;&lt;/b&gt;&lt;/u&gt;&lt;/div&gt;" style="shape=process;whiteSpace=wrap;html=1;backgroundOutline=1;" parent="1" vertex="1">
          <mxGeometry x="250" y="270" width="130" height="75" as="geometry" />
        </mxCell>
        <mxCell id="mCq5QhD6Jpc3-_iY2Im2-9" value="&lt;b style=&quot;font-size: 20px;&quot;&gt;&lt;font style=&quot;font-size: 20px;&quot;&gt;Decision Tree&lt;/font&gt;&lt;/b&gt;&lt;div style=&quot;font-size: 20px;&quot;&gt;&lt;b style=&quot;&quot;&gt;&lt;font style=&quot;font-size: 20px;&quot;&gt;2&lt;/font&gt;&lt;/b&gt;&lt;/div&gt;" style="shape=process;whiteSpace=wrap;html=1;backgroundOutline=1;fontStyle=4" parent="1" vertex="1">
          <mxGeometry x="420" y="270" width="125" height="75" as="geometry" />
        </mxCell>
        <mxCell id="mCq5QhD6Jpc3-_iY2Im2-10" value="&lt;u style=&quot;font-size: 20px;&quot;&gt;&lt;b style=&quot;&quot;&gt;&lt;font style=&quot;font-size: 20px;&quot;&gt;Decision Tree&lt;/font&gt;&lt;/b&gt;&lt;/u&gt;&lt;div style=&quot;font-size: 20px;&quot;&gt;&lt;u style=&quot;&quot;&gt;&lt;b style=&quot;&quot;&gt;&lt;font style=&quot;font-size: 20px;&quot;&gt;n&lt;/font&gt;&lt;/b&gt;&lt;/u&gt;&lt;/div&gt;" style="shape=process;whiteSpace=wrap;html=1;backgroundOutline=1;" parent="1" vertex="1">
          <mxGeometry x="610" y="270" width="120" height="75" as="geometry" />
        </mxCell>
        <mxCell id="mCq5QhD6Jpc3-_iY2Im2-11" value="&lt;font style=&quot;font-size: 20px;&quot;&gt;&lt;b&gt;VOTING&lt;/b&gt;&lt;/font&gt;" style="rhombus;whiteSpace=wrap;html=1;" parent="1" vertex="1">
          <mxGeometry x="400" y="400" width="140" height="80" as="geometry" />
        </mxCell>
        <mxCell id="mCq5QhD6Jpc3-_iY2Im2-12" value="&lt;b&gt;&lt;font style=&quot;font-size: 20px;&quot;&gt;PREDICTION&lt;/font&gt;&lt;/b&gt;" style="rounded=1;whiteSpace=wrap;html=1;" parent="1" vertex="1">
          <mxGeometry x="400" y="510" width="140" height="60" as="geometry" />
        </mxCell>
        <mxCell id="mCq5QhD6Jpc3-_iY2Im2-14" value="" style="endArrow=classic;html=1;rounded=0;exitX=1;exitY=0.5;exitDx=0;exitDy=0;exitPerimeter=0;entryX=0;entryY=0.5;entryDx=0;entryDy=0;" parent="1" source="mCq5QhD6Jpc3-_iY2Im2-3" target="mCq5QhD6Jpc3-_iY2Im2-4" edge="1">
          <mxGeometry width="50" height="50" relative="1" as="geometry">
            <mxPoint x="400" y="420" as="sourcePoint" />
            <mxPoint x="450" y="370" as="targetPoint" />
          </mxGeometry>
        </mxCell>
        <mxCell id="mCq5QhD6Jpc3-_iY2Im2-17" value="" style="endArrow=none;dashed=1;html=1;dashPattern=1 3;strokeWidth=2;rounded=0;" parent="1" edge="1">
          <mxGeometry width="50" height="50" relative="1" as="geometry">
            <mxPoint x="550" y="315" as="sourcePoint" />
            <mxPoint x="600" y="315" as="targetPoint" />
          </mxGeometry>
        </mxCell>
        <mxCell id="mCq5QhD6Jpc3-_iY2Im2-19" value="" style="endArrow=none;dashed=1;html=1;dashPattern=1 3;strokeWidth=2;rounded=0;" parent="1" edge="1">
          <mxGeometry width="50" height="50" relative="1" as="geometry">
            <mxPoint x="550" y="190" as="sourcePoint" />
            <mxPoint x="620" y="190" as="targetPoint" />
            <Array as="points" />
          </mxGeometry>
        </mxCell>
        <mxCell id="mCq5QhD6Jpc3-_iY2Im2-20" value="" style="endArrow=classic;html=1;rounded=0;exitX=0.5;exitY=1;exitDx=0;exitDy=0;entryX=0.5;entryY=0;entryDx=0;entryDy=0;" parent="1" source="mCq5QhD6Jpc3-_iY2Im2-8" target="mCq5QhD6Jpc3-_iY2Im2-11" edge="1">
          <mxGeometry width="50" height="50" relative="1" as="geometry">
            <mxPoint x="430" y="350" as="sourcePoint" />
            <mxPoint x="480" y="300" as="targetPoint" />
          </mxGeometry>
        </mxCell>
        <mxCell id="mCq5QhD6Jpc3-_iY2Im2-21" value="" style="endArrow=classic;html=1;rounded=0;entryX=0.5;entryY=0;entryDx=0;entryDy=0;exitX=0.411;exitY=0.991;exitDx=0;exitDy=0;exitPerimeter=0;" parent="1" source="mCq5QhD6Jpc3-_iY2Im2-9" target="mCq5QhD6Jpc3-_iY2Im2-11" edge="1">
          <mxGeometry width="50" height="50" relative="1" as="geometry">
            <mxPoint x="470" y="350" as="sourcePoint" />
            <mxPoint x="480" y="300" as="targetPoint" />
          </mxGeometry>
        </mxCell>
        <mxCell id="mCq5QhD6Jpc3-_iY2Im2-22" value="" style="endArrow=classic;html=1;rounded=0;exitX=0.45;exitY=0.996;exitDx=0;exitDy=0;exitPerimeter=0;entryX=0.5;entryY=0;entryDx=0;entryDy=0;" parent="1" source="mCq5QhD6Jpc3-_iY2Im2-10" target="mCq5QhD6Jpc3-_iY2Im2-11" edge="1">
          <mxGeometry width="50" height="50" relative="1" as="geometry">
            <mxPoint x="430" y="350" as="sourcePoint" />
            <mxPoint x="480" y="300" as="targetPoint" />
          </mxGeometry>
        </mxCell>
        <mxCell id="mCq5QhD6Jpc3-_iY2Im2-23" value="" style="endArrow=classic;html=1;rounded=0;exitX=0.5;exitY=1;exitDx=0;exitDy=0;entryX=0.5;entryY=0;entryDx=0;entryDy=0;" parent="1" source="mCq5QhD6Jpc3-_iY2Im2-11" target="mCq5QhD6Jpc3-_iY2Im2-12" edge="1">
          <mxGeometry width="50" height="50" relative="1" as="geometry">
            <mxPoint x="380" y="440" as="sourcePoint" />
            <mxPoint x="430" y="390" as="targetPoint" />
          </mxGeometry>
        </mxCell>
        <mxCell id="mCq5QhD6Jpc3-_iY2Im2-24" value="" style="endArrow=classic;html=1;rounded=0;exitX=0.449;exitY=0.995;exitDx=0;exitDy=0;exitPerimeter=0;entryX=0.5;entryY=0;entryDx=0;entryDy=0;" parent="1" source="mCq5QhD6Jpc3-_iY2Im2-4" target="mCq5QhD6Jpc3-_iY2Im2-8" edge="1">
          <mxGeometry width="50" height="50" relative="1" as="geometry">
            <mxPoint x="350" y="340" as="sourcePoint" />
            <mxPoint x="400" y="290" as="targetPoint" />
          </mxGeometry>
        </mxCell>
        <mxCell id="mCq5QhD6Jpc3-_iY2Im2-25" value="" style="endArrow=classic;html=1;rounded=0;exitX=0.447;exitY=0.995;exitDx=0;exitDy=0;exitPerimeter=0;entryX=0.469;entryY=0.004;entryDx=0;entryDy=0;entryPerimeter=0;" parent="1" source="mCq5QhD6Jpc3-_iY2Im2-5" target="mCq5QhD6Jpc3-_iY2Im2-9" edge="1">
          <mxGeometry width="50" height="50" relative="1" as="geometry">
            <mxPoint x="500" y="310" as="sourcePoint" />
            <mxPoint x="550" y="260" as="targetPoint" />
          </mxGeometry>
        </mxCell>
        <mxCell id="mCq5QhD6Jpc3-_iY2Im2-26" value="" style="endArrow=classic;html=1;rounded=0;exitX=0.461;exitY=0.988;exitDx=0;exitDy=0;exitPerimeter=0;entryX=0.457;entryY=0.01;entryDx=0;entryDy=0;entryPerimeter=0;" parent="1" source="mCq5QhD6Jpc3-_iY2Im2-7" target="mCq5QhD6Jpc3-_iY2Im2-10" edge="1">
          <mxGeometry width="50" height="50" relative="1" as="geometry">
            <mxPoint x="500" y="310" as="sourcePoint" />
            <mxPoint x="550" y="260" as="targetPoint" />
          </mxGeometry>
        </mxCell>
      </root>
    </mxGraphModel>
  </diagram>
</mxfile>
